<?xml version="1.0" encoding="UTF-8"?>
<svg id="Layer_1" data-name="Layer 1" xmlns="http://www.w3.org/2000/svg" viewBox="0 0 521.355976 506.14502">
  <defs>
    <style>
      .cls-1 {
        fill: #2fba72;
      }

      .cls-2 {
        fill: #2eba72;
      }
    </style>
  </defs>
  <path class="cls-2" d="M514.436391,192.349806h-104.039556c-2.956978-19.265475-9.693671-35.665511-20.179937-49.230622-10.51678-13.565111-24.08189-24.08189-40.664819-31.51964-10.51678-4.694549-21.825969-7.925773-33.92794-9.663344-7.011124-1.005815-14.327194-1.493652-21.886995-1.493652-20.606748,0-38.866222,3.719061-54.839447,11.156996-9.754697,4.541984-18.533905,10.242348-26.337626,17.101093-16.49139-18.107094-35.878917-32.495314-57.460967-41.975579-12.101971-5.304066-24.112403-8.748695-35.787378-10.760512,18.808151-22.649264,42.402204-40.817198,70.721133-54.626228C219.235923,7.133177,253.804079,0,293.737143,0c7.651341,0,15.150302,.274432,22.496699,.823109,32.495128,2.438628,61.789731,10.272861,87.852925,23.472187,31.946451,16.186631,57.460967,38.622303,76.604576,67.27669,19.11291,28.684714,30.361259,62.277383,33.745048,100.77782Z"/>
  <path class="cls-2" d="M521.355976,314.43543c0,.091353-.030327,.152379-.030327,.243919-3.810414,34.933756-15.028436,66.910719-33.714721,95.930891-6.157502,9.632831-13.077274,18.625259-20.759128,26.947329-15.485388,16.857174-33.98878,31.092829-55.509991,42.646123-27.43498,14.723491-59.198538,23.197755-95.321374,25.362137h-.030513c-4.115173-.304945-8.200018-.67073-12.193325-1.158381v1.646032c-2.255735,.061026-4.572497,.091539-6.889258,.091539-41.609608,0-77.366473-7.559988-107.209754-22.649078-29.843095-15.119789-54.199231-35.025481-73.129434-59.747402-18.89969-24.721921-32.891426-51.425331-41.914553-80.079718-7.255043-23.014863-11.614134-45.511561-13.016433-67.520423,1.646218,3.597008,2.987491,6.523473,4.084846,8.748695,15.698794,31.763558,53.528687,69.288507,150.526606,95.168809,7.376909,5.91377,15.576927,10.821724,24.539028,14.784518,16.400036,7.22453,35.086321,10.852051,56.119694,10.852051,6.980797,0,13.71749-.396298,20.240963-1.188894,23.258781-2.743572,43.530258-10.455753,60.753217-23.106402,22.069888-16.186631,35.421593-38.500437,40.055116-66.971746h103.39934Z"/>
  <path class="cls-1" d="M258.772874,311.265233v1.188708c-.061026,11.522781-.360243,25.021668-1.884409,36.818694,0,0-1.621246-3.500458-3.755115-6.548789-1.554679-2.286248-3.688362-5.334579-6.279555-8.962101-1.249734-1.767898-2.62152-3.657849-4.054332-5.669851-.548677-.73157-1.097355-1.493652-1.646032-2.255735-2.072843-2.865439-4.328578-5.91377-6.767206-9.144993-1.920463-2.591007-3.962979-5.273553-6.096662-8.047639-1.067028-1.402113-2.164382-2.804413-3.261737-4.206712-1.24992-1.646032-2.530167-3.292064-3.840927-4.938282-.883949-1.097355-1.768084-2.225222-2.713059-3.383603-2.286248-2.865439-4.66385-5.791904-7.072151-8.718182-2.255735-2.743572-4.541984-5.486959-6.919585-8.230531-7.01131-8.200018-14.357707-16.33901-21.826155-23.898998-.609703-.64003-1.249734-1.280247-1.859437-1.859437-2.469141-2.499654-4.968795-4.907768-7.468448-7.255043-1.188894-1.097355-2.377602-2.194709-3.566495-3.261737-1.219407-1.127868-2.438628-2.194709-3.658035-3.261551-3.566495-3.078844-7.102664-5.944283-10.608133-8.504963-.762083-.57919-1.554679-1.158381-2.316761-1.707058-2.682546-1.88995-5.334579-3.627521-7.9561-5.151687-.914648-.548677-1.859623-1.066841-2.774086-1.554679,.152379,.152565,.640217,.640217,1.432812,1.432812,.091353,.06084,.182892,.152379,.274246,.274246,.304945,.274432,.640217,.609703,1.006001,.975488,.213406,.213406,.457324,.426811,.670544,.67073,.213406,.213406,.426811,.426625,.67073,.670544l.243919,.243919c1.31076,1.31076,2.865439,2.865439,4.633337,4.694363l1.097541,1.097541c.73157,.762083,1.493652,1.554493,2.316575,2.408115,.51835,.518164,1.067028,1.097355,1.646218,1.676545,.426625,.457324,.883949,.944975,1.341273,1.402299,.457138,.487651,.944975,.975488,1.432626,1.493652,2.072843,2.164382,4.267738,4.480957,6.614826,6.980611,3.749574,4.023819,7.80372,8.443937,12.010432,13.1383,1.402299,1.554679,2.835112,3.13987,4.237225,4.755389,1.158381,1.280433,2.316761,2.591193,3.444629,3.932466,2.316761,2.652033,4.633523,5.365093,6.950284,8.108479,9.327886,11.034944,18.594745,22.77113,26.490005,34.202372,1.249734,1.828924,2.499468,3.657849,3.688362,5.456446,1.127868,1.707058,2.194895,3.383603,3.261737,5.060148,.823109,1.310946,1.585192,2.621706,2.347275,3.901953,.883949,1.463139,1.707058,2.895952,2.499654,4.328578,5.547985,9.968102,9.297373,19.234962,10.242348,26.947329-1.463139-.335272-2.926465-.67073-4.359091-1.036514-5.151687-1.219221-10.150995-2.499654-14.997923-3.779901-13.473571-3.597008-25.819275-7.407422-37.098138-11.431242-69.837184-24.782947-99.710792-56.363613-113.24539-83.646214-2.225408-4.480957-5.395606-11.705487-9.998615-21.917508-6.401421-14.144301-15.546414-34.019294-28.623874-60.235053-7.712181-15.515901-14.875871-29.294417-21.033373-40.939065-4.45063-8.352398-8.352398-15.60744-11.644647-21.612564,4.08466-1.768084,10.760512-4.54217,19.478881-7.346582,2.804413-.914462,5.822231-1.798411,9.022941-2.682546,2.133869-.57919,4.328764-1.158381,6.64534-1.707058,12.589622-2.987305,27.587546-5.304066,43.957069-5.304066,1.493652,0,2.987305,.030513,4.511471,.061026,1.493652,.030513,3.017818,.091353,4.572497,.182892,1.006001,.06084,1.98149,.121866,2.987305,.182892,1.067028,.091353,2.133869,.152379,3.231224,.274246,1.219407,.091539,2.438814,.213406,3.658035,.365785,1.097355,.122052,2.225222,.243919,3.322763,.396298,.822923,.122052,1.646032,.243919,2.469141,.365785,1.219221,.182892,2.438628,.365971,3.658035,.57919,.182892,.030513,.335272,.061026,.518164,.091539,.091353,.030513,.213406,.030513,.304759,.061026,.182892,.030327,.396298,.091353,.609703,.121866,3.13987,.57919,6.279555,1.249734,9.449752,2.04233h.030513c1.280433,.304945,2.56068,.640217,3.810414,1.006001,.365785,.091353,.73157,.182892,1.097355,.304759,.884135,.243919,1.768084,.487837,2.652219,.762083l2.286248,.731756c.73157,.243733,1.493652,.487651,2.255735,.73157,.73157,.243733,1.463139,.518164,2.225222,.792596,1.920463,.64003,3.810414,1.3716,5.730877,2.133683,.792596,.304945,1.585192,.640217,2.347275,.975488,.79241,.304945,1.585006,.67073,2.377602,1.006001,1.067028,.457324,2.133869,.944975,3.20071,1.463139,.914648,.396298,1.798597,.823109,2.682546,1.280433,1.371786,.670544,2.743572,1.3716,4.115359,2.072843,.883949,.487651,1.767898,.944975,2.652033,1.432626,1.249734,.67073,2.469141,1.371786,3.688362,2.103356,.823109,.487837,1.646218,.944975,2.438814,1.463139,1.646032,1.006001,3.292064,2.042516,4.877255,3.078844,1.493652,.975488,2.956792,1.98149,4.389604,3.017818,.792596,.548863,1.585192,1.097541,2.347275,1.646218,.06084,.06084,.121866,.091353,.182892,.152379,1.3716,1.006001,2.712873,2.011817,4.054146,3.078844,.914648,.701057,1.798597,1.402113,2.682546,2.133869,.792596,.64003,1.585192,1.280247,2.347275,1.950791,.701057,.57919,1.402299,1.188894,2.103356,1.798597,.762083,.640217,1.524166,1.31076,2.255735,1.98149,.091539,.06084,.152379,.152379,.243919,.213219,1.646032,1.493839,3.261737,2.987491,4.846742,4.54217,1.493839,1.432626,2.987491,2.926279,4.420117,4.419931,.853622,.884135,1.676545,1.737571,2.499654,2.652033,.061026,.030513,.091539,.091539,.121866,.122052,.396298,.426811,.792596,.853436,1.188894,1.31076,1.798597,1.98149,3.566495,3.993306,5.273739,6.035636,.64003,.762083,1.280247,1.554679,1.920277,2.347275,1.585192,1.920463,3.109357,3.87144,4.572497,5.852744,.762083,1.006001,1.493839,1.98149,2.225408,3.017818,1.493652,2.042516,2.926279,4.084846,4.328578,6.188201,.67073,1.036328,1.371786,2.072843,2.04233,3.139684,.67073,1.036514,1.341273,2.103356,2.012003,3.200897,1.371786,2.164196,2.652033,4.359091,3.901767,6.5538,.640217,1.097355,1.280433,2.225408,1.88995,3.353276,.609703,1.097355,1.219407,2.225222,1.82911,3.383603,.548677,1.006001,1.066841,2.011817,1.554679,3.017818,.670544,1.280247,1.31076,2.591007,1.920463,3.87144,1.127868,2.347088,2.225222,4.694363,3.292064,7.102478,.51835,1.188894,1.036514,2.377788,1.554679,3.597194,1.036514,2.408115,2.012003,4.846742,2.956978,7.315883,.487651,1.219407,.944975,2.469141,1.402113,3.719061,.457324,1.249734,.914462,2.499468,1.341273,3.749388,1.127868,3.261737,2.225222,6.553986,3.20071,9.907076,.304945,.944975,.57919,1.859437,.853622,2.834926,0,.030513,.030513,.091539,.030513,.121866,.091353,.274432,.152379,.548863,.243733,.823109,.548863,1.98149,1.097541,3.962793,1.615705,5.974796,.304759,1.158381,.57919,2.316761,.853436,3.505469,.274432,1.036514,.51835,2.103356,.762083,3.170383,.335458,1.3716,.609703,2.773899,.914648,4.176199,0,.06084,.030513,.091353,.030513,.152379,.182892,.883949,.365785,1.768084,.548677,2.652033,.274246,1.371786,.548677,2.773899,.79241,4.145686,.122052,.640217,.243919,1.280433,.335458,1.920463,.213406,1.067028,.396298,2.164382,.548677,3.261737,.061026,.304759,.121866,.57919,.152379,.883949,.335272,2.042516,.609703,4.115359,.883949,6.157688,.274432,1.920463,.51835,3.87144,.731756,5.822417,.182892,1.524166,.335272,3.078658,.487651,4.633337,.182892,1.768084,.335272,3.536168,.457324,5.334579,.091353,1.036514,.152379,2.072843,.213219,3.109357,.122052,1.676545,.213406,3.383603,.274432,5.090661,.091539,1.82911,.152379,3.688548,.182892,5.517472,.061026,2.194895,.091539,4.389604,.091539,6.615013Z"/>
</svg>