<?xml version="1.0" encoding="UTF-8"?>
<svg id="Layer_1" data-name="Layer 1" xmlns="http://www.w3.org/2000/svg" viewBox="0 0 325.046404 307.599976">
  <defs>
    <style>
      .cls-1 {
        fill: #6dc24f;
      }
    </style>
  </defs>
  <path class="cls-1" d="M276.246416,196c-3.470032,21.599976-13.200012,38.199951-29.200012,49.799988-16,11.599976-35.73999,17.399963-59.200012,17.399963-16.27002,0-30.599976-2.799988-43-8.399963-10.51001-4.75-19.549988-11.119995-27.070007-19.130005-36.359985-11.080017-58.549988-24.169983-72.169983-37.040039,.839966,3.300049,1.789978,6.630005,2.839966,9.970032,5.460022,17.469971,14,33.73999,25.600037,48.799988,11.599976,15.070007,26.799988,27.200012,45.599976,36.400024s41.530029,13.799988,68.200012,13.799988c27.460022,0,50.929993-5,70.400024-15,19.459961-10,34.799988-23.460022,46-40.400024,11.199951-16.929993,18.130005-35.659973,20.799988-56.199951h-48.799988Zm23.399963-143c-11.339966-16.660034-26.599976-29.660034-45.799988-39C234.64638,4.669983,211.846392,0,185.446367,0c-25.339966,0-47.269958,4.399963-65.799988,13.199951-18.539978,8.800049-33.599976,20.400024-45.200012,34.800049-8.289978,10.289978-15.039978,21.389954-20.259949,33.309998,7.690002,1.459961,15.659973,4.009949,23.589966,8.099976,7.210022,3.719971,13.890015,8.450012,19.960022,14.039978,3.950012-10.259949,9.190002-19.399963,15.709961-27.449951,8-9.860046,18.059998-17.600037,30.200012-23.200012,12.130005-5.600037,26.059998-8.400024,41.799988-8.400024,15.200012,0,28.860046,2.540039,41,7.600037,12.130005,5.069946,22.130005,12.599976,30,22.599976,7.860046,10,12.860046,22.469971,15,37.400024h48.400024c-2.140015-22.660034-8.869995-42.330017-20.200012-59Z"/>
  <path class="cls-1" d="M73.026328,152.275632c.45348,.502824,7.768972,8.597102,16.661835,19.718191,10.184463,12.747803,22.429442,29.468791,28.71955,43.202564,2.395753,5.225309,3.923961,10.016815,4.150701,13.999868-1.784494-.532369-3.539442-1.074608-5.264783-1.616846-2.563341-.818322-5.047852-1.636644-7.463282-2.464774-35.512481-12.215434-55.47715-26.45197-66.785564-39.978681-4.811243-5.747809-8.054864-11.367506-10.273161-16.651967-2.543664-6.073237-7.591516-20.901295-18.397046-46.456053-5.619696-13.29997-10.647871-24.401261-14.374578-32.436448,10.509769-3.223944,30.218152-7.611193,51.947577-2.987335,7.009802,1.488733,14.236536,3.914092,21.423795,7.621122,7.808447,4.022528,14.985837,9.247836,21.413987,15.468923,26.047714,25.180108,39.929337,66.677068,34.01388,110.816198-6.181672-10.174594-22.813962-36.518068-39.742012-54.432028-5.422503-5.738001-10.88448-10.618265-16.030899-13.802734Z"/>
</svg>