<?xml version="1.0" encoding="UTF-8"?>
<svg id="Layer_1" data-name="Layer 1" xmlns="http://www.w3.org/2000/svg" viewBox="0 0 918.289978 194.058974">
  <defs>
    <style>
      .cls-1 {
        fill: #2fba72;
      }
    </style>
  </defs>
  <g>
    <path class="cls-1" d="M239.940002,119.028944c-.230042,4.670044-1.140015,8.320007-2.73999,10.940002-1.590027,2.630005-3.620056,4.480042-6.070007,5.559998-2.450012,1.080017-5.210022,1.619995-8.290039,1.619995-4.789978,0-8.469971-1.159973-11.029968-3.5-2.570007-2.339966-3.850037-5.389954-3.850037-9.149963,0-3.98999,1.280029-7.150024,3.850037-9.48999,2.559998-2.340027,6.23999-3.51001,11.029968-3.51001h20.179993v-15.210022h-20.009949c-8.320007,0-15.680054,1.049988-22.059998,3.160034-6.380005,2.109985-11.340027,5.359985-14.880005,9.75-3.530029,4.389954-5.300049,10-5.300049,16.839966,0,6.27002,1.430054,11.660034,4.280029,16.160034s6.809998,7.949951,11.880005,10.349976c5.070007,2.390015,10.969971,3.590027,17.700012,3.590027,6.5,0,12-1.200012,16.5-3.590027,4.5-2.400024,8.039978-5.820007,10.599976-10.27002,1.140015-1.969971,2.080017-4.139954,2.830017-6.519958,.929993-2.980042,1.559998-6.27002,1.880005-9.890015l-6.5-6.840027Zm21.199951-44.029968c-3.419983-5.530029-8.409973-9.669983-14.959961-12.400024-6.559998-2.73999-14.619995-4.109985-24.200012-4.109985-3.299988,0-6.840027,.059998-10.599976,.179993-3.76001,.109985-7.410034,.280029-10.940002,.51001-3.540039,.22998-6.619995,.460022-9.23999,.679993v23.090027c3.539978-.230042,7.469971-.460022,11.799988-.690002,4.329956-.220032,8.549988-.390015,12.659973-.51001,4.100037-.109985,7.410034-.169983,9.910034-.169983,5.019958,0,8.669983,1.199951,10.949951,3.589966,2.280029,2.390015,3.420044,5.98999,3.420044,10.77002v30.099976h4.619995v27.700012h21.709961v-57.450012c0-8.669983-1.709961-15.76001-5.130005-21.289978Z"/>
    <path class="cls-1" d="M343.72998,58.838942c-10.710022,0-18.890015,3.590027-24.529968,10.77002-4.25,5.410034-6.900024,12.530029-7.950012,21.359985v-30.940002h-21.720032v93.710022h27.359985v-47.710022c0-7.630005,2.050049-13.47998,6.150024-17.529968,4.109985-4.040039,9.919983-6.070007,17.450012-6.070007h6.839966v-23.590027h-3.599976Z"/>
    <path class="cls-1" d="M459.76001,85.848952c-2-5.809998-4.820007-10.849976-8.470032-15.130005-3.650024-4.269958-8.059998-7.579956-13.25-9.919983-5.190002-2.330017-10.969971-3.5-17.359985-3.5-7.290039,0-13.790039,1.619995-19.48999,4.869995-5.070007,2.890015-9.179993,7.049988-12.309998,12.47998V28.908949h-27.360046v124.830017h21.710022v-20.440002c.599976,1.590027,1.289978,3.099976,2.059998,4.539978,3.299988,6.150024,7.859985,10.860046,13.679993,14.110046,5.809998,3.25,12.540039,4.869995,20.169983,4.869995,6.730042,0,12.77002-1.230042,18.130005-3.679993,5.360046-2.450012,9.940002-5.869995,13.77002-10.26001,3.809998-4.380005,6.720032-9.48999,8.720032-15.299988,1.98999-5.820007,2.98999-12.140015,2.98999-18.980042v-3.76001c0-6.839966-1-13.169983-2.98999-18.98999Zm-27.450012,34.970032c-1.940002,4.169983-4.650024,7.389954-8.119995,9.669983-3.480042,2.280029-7.550049,3.419983-12.230042,3.419983-3.869995,0-7.639954-.919983-11.279968-2.73999-3.650024-1.820007-6.650024-4.469971-8.97998-7.950012-2.340027-3.47998-3.51001-7.669983-3.51001-12.570007v-6.329956c0-5.130005,1.109985-9.48999,3.339966-13.080017,2.220032-3.590027,5.150024-6.349976,8.799988-8.289978,3.650024-1.940002,7.530029-2.910034,11.630005-2.910034,4.679993,0,8.75,1.109985,12.230042,3.340027,3.469971,2.219971,6.179993,5.329956,8.119995,9.309998,1.940002,4,2.909973,8.669983,2.909973,14.029968,0,5.23999-.969971,9.940002-2.909973,14.100037Z"/>
    <path class="cls-1" d="M578.940002,86.958937c-2.390015-5.869995-5.809998-11.019958-10.26001-15.469971s-9.830017-7.950012-16.160034-10.52002c-2.579956-1.039978-5.309998-1.869995-8.179993-2.48999,2.040039,3.570007,3.01001,8.320007,3.01001,13.48999,0,4.720032-.76001,9.030029-2.48999,12.470032,3.159973,2.309998,5.619995,5.320007,7.400024,9.019958,1.940002,4.050049,2.909973,8.75,2.909973,14.110046,0,5.019958-.940002,9.579956-2.820007,13.679993-1.880005,4.099976-4.589966,7.299988-8.119995,9.580017-3.539978,2.279968-7.97998,3.419983-13.340027,3.419983-5.129944,0-9.519958-1.140015-13.169983-3.419983-3.649963-2.280029-6.380005-5.480042-8.209961-9.580017-1.820007-4.100037-2.730042-8.660034-2.730042-13.679993,0-5.360046,.940002-10.059998,2.820007-14.110046,1.880005-4.039978,4.640015-7.259949,8.289978-9.659973,.350037-.22998-4.639954,6.299988-4.819946,12.970032-.210022,7.949951,4.179993,15.939941,4.179993,15.939941,0,0,24.599976-15.97998,24.880005-40.519958,.199951-17.140015-13.179993-41.960022-13.179993-41.960022,0,0-8.160034,23.890015-19.440002,30.73999-5.880005,3.559998-11.820007,6.070007-16.330017,10.52002-4.5,4.450012-7.919983,9.599976-10.26001,15.469971-2.330017,5.880005-3.5,12.060059-3.5,18.560059v3.929993c0,6.389954,1.140015,12.459961,3.419983,18.209961,2.280029,5.76001,5.610046,10.860046,10,15.309998,4.390015,4.440002,9.780029,7.950012,16.160034,10.51001,6.380005,2.570007,13.679993,3.850037,21.889954,3.850037,8.320007,0,15.670044-1.280029,22.060059-3.850037,6.379944-2.559998,11.769958-6.070007,16.159973-10.51001,4.380005-4.449951,7.719971-9.549988,10-15.309998,2.279968-5.75,3.419983-11.820007,3.419983-18.209961v-3.929993c0-6.5-1.200012-12.680054-3.589966-18.560059Z"/>
    <path class="cls-1" d="M677.779968,67.808974c-5.76001-7.119995-14.109985-10.679993-25.049988-10.679993h-1.200012c-7.179993,0-13.279968,1.589966-18.299988,4.779968-5.01001,3.200012-8.75,7.98999-11.200012,14.369995-.869995,2.25-1.570007,4.690002-2.130005,7.340027v-23.590027h-21.719971v93.710022h27.359985v-54.549988c0-5.23999,1.570007-9.48999,4.700012-12.73999,3.140015-3.25,7.27002-4.869995,12.399963-4.869995,5.01001,0,9,1.599976,11.970032,4.789978,2.960022,3.190002,4.450012,7.289978,4.450012,12.309998v55.059998h27.359985v-53.52002c0-14.47998-2.880005-25.279968-8.640015-32.409973Z"/>
    <polygon class="cls-1" points="741.47998 60.028944 741.47998 153.738966 714.119995 153.738966 714.119995 80.208937 701.630005 80.208937 701.630005 60.028944 741.47998 60.028944"/>
    <path class="cls-1" d="M818.599976,61.908949v20.01001h-24.279968v71.820007h-25.480042V81.918959h-11.119995v-20.01001h11.119995v-2.72998c0-10.830017,3.080017-18.869995,9.230042-24.109985,6.159973-5.23999,15.219971-7.869995,27.190002-7.869995h11.969971v20.519958h-13.169983c-3.080017,0-5.470032,.860046-7.179993,2.570007-1.710022,1.710022-2.559998,4.100037-2.559998,7.179993v4.440002h24.279968Z"/>
    <path class="cls-1" d="M918.289978,60.028944l-26.169983,101.240051c-1.820007,7.289978-4.359985,13.099976-7.609985,17.439941-3.240051,4.330017-7.580017,7.440002-12.990051,9.320007-5.419983,1.880005-12.289978,2.820007-20.609985,2.820007l-762.099976,3.179993-5.76001,.030029c-1.970032-.030029-3.900024-.109985-5.789978-.22998-11.670044-.730042-21.910034-3.110046-30.730042-7.110046-10.789978-4.889954-19.619995-11.369995-26.469971-19.389954-6.840027-8.030029-11.890015-16.700012-15.160034-26.01001-3.269958-9.309998-4.899963-18.360046-4.899963-27.179993v-4.700012c0-9.660034,1.669983-19.210022,5.019958-28.669983,3.350037-9.450012,8.470032-18.02002,15.390015-25.680054,6.919983-7.679993,15.660034-13.829956,26.23999-18.440002,10.570007-4.629944,23.059998-6.929993,37.52002-6.929993,15.049988,0,28.359985,2.630005,39.919983,7.890015,11.549988,5.26001,20.790039,12.539978,27.720032,21.840027,6.909973,9.309998,10.969971,20.219971,12.200012,32.72998h-37.640015c-1.070007-6.25-3.5-11.590027-7.299988-15.98999-3.800049-4.400024-8.710022-7.809998-14.710022-10.230042-6.02002-2.419983-12.73999-3.629944-20.190002-3.629944s-14.070007,1.209961-19.840027,3.629944c-5.779968,2.420044-10.609985,5.830017-14.48999,10.230042-3.880005,4.399963-6.839966,9.630005-8.899963,15.669983-2.050049,6.039978-3.080017,12.76001-3.080017,20.150024,0,7.23999,1.029968,13.889954,3.080017,19.919983,2.059998,6.049988,5.099976,11.309998,9.130005,15.789978,4.019958,4.470032,9.009949,7.890015,14.940002,10.230042,5.929993,2.339966,12.690002,3.519958,20.299988,3.519958,11.549988,0,21.329956-2.630005,29.309998-7.899963,7.98999-5.26001,12.809998-12.5,14.47998-21.73999h37.419983c-1.369995,11.369995-5.440002,21.779968-12.209961,31.22998-2.140015,2.97998-4.52002,5.77002-7.130005,8.380005l706.469971-3.850037c2.960022,0,5.470032-.369995,7.52002-1.109985,2.059998-.73999,3.710022-1.969971,4.960022-3.679993,1.259949-1.710022,2.279968-4.039978,3.079956-7.01001l.990051-4.099976h-17.920044l-28.72998-91.660034h27.529968l20.850037,70.280029h3.419983l16.950012-70.280029h25.98999Z"/>
  </g>
  <path class="cls-1" d="M717.674358,26.526614s14.072734,20.124756,13.50279,28.303053c-19.691711-8.741758-25.985021-17.687484-27.882354-24.534847-.602575-2.174657-1.674603-7.432078-4.237146-16.587378-1.511237-5.399262-2.882995-9.803774-3.828748-12.747209,3.393188-.767131,15.781376-3.119775,26.664385,4.37396,13.196566,9.086772,18.858948,28.987359,12.456405,48.358059,0,0-8.71169-20.694649-16.675332-27.165637Z"/>
</svg>