<?xml version="1.0" encoding="UTF-8"?>
<svg id="Layer_1" data-name="Layer 1" xmlns="http://www.w3.org/2000/svg" viewBox="0 0 925.880005 173.190002">
  <defs>
    <style>
      .cls-1 {
        fill: #2fba72;
      }

      .cls-2 {
        fill: #2eba72;
      }
    </style>
  </defs>
  <g>
    <path class="cls-1" d="M268.72998,53.73999c-3.419983-5.530029-8.409973-9.669983-14.950012-12.400024-6.559998-2.73999-14.619995-4.109985-24.209961-4.109985-3.290039,0-6.840027,.059998-10.590027,.179993-3.76001,.109985-7.419983,.280029-10.940002,.51001-3.549988,.22998-6.619995,.460022-9.23999,.679993v23.090027c3.539978-.230042,7.460022-.460022,11.799988-.690002,4.320007-.220032,8.540039-.390015,12.650024-.51001,4.109985-.109985,7.419983-.169983,9.919983-.169983,5.01001,0,8.669983,1.199951,10.940002,3.589966,2.280029,2.390015,3.429993,5.98999,3.429993,10.77002v.349976h-16.929993c-8.320007,0-15.690002,1.049988-22.059998,3.160034-6.380005,2.109985-11.349976,5.359985-14.880005,9.75-3.539978,4.389954-5.309998,10-5.309998,16.839966,0,6.27002,1.440002,11.660034,4.280029,16.160034,2.849976,4.5,6.809998,7.949951,11.889954,10.349976,5.070007,2.390015,10.960022,3.590027,17.700012,3.590027,6.5,0,12-1.200012,16.5-3.590027,4.5-2.400024,8.030029-5.820007,10.590027-10.27002,1.149963-1.969971,2.089966-4.139954,2.839966-6.519958v17.97998h21.700012v-57.450012c0-8.669983-1.700012-15.76001-5.130005-21.289978Zm-21.190002,44.029968c-.23999,4.670044-1.149963,8.320007-2.73999,10.940002-1.599976,2.630005-3.630005,4.480042-6.070007,5.559998-2.450012,1.080017-5.219971,1.619995-8.299988,1.619995-4.789978,0-8.460022-1.159973-11.02002-3.5-2.570007-2.339966-3.859985-5.389954-3.859985-9.149963,0-3.98999,1.289978-7.150024,3.859985-9.48999,2.559998-2.340027,6.230042-3.51001,11.02002-3.51001h17.109985v7.529968Z"/>
    <path class="cls-1" d="M351.320007,37.579956c-10.710022,0-18.890015,3.590027-24.52002,10.77002-4.25,5.410034-6.909973,12.530029-7.950012,21.359985v-30.940002h-21.72998v93.710022h27.359985v-47.710022c0-7.630005,2.059998-13.47998,6.150024-17.529968,4.109985-4.040039,9.919983-6.070007,17.459961-6.070007h6.830017v-23.590027h-3.599976Z"/>
    <path class="cls-1" d="M467.359985,64.589966c-2-5.809998-4.820007-10.849976-8.47998-15.130005-3.650024-4.269958-8.059998-7.579956-13.25-9.919983-5.190002-2.330017-10.960022-3.5-17.350037-3.5-7.299988,0-13.799988,1.619995-19.48999,4.869995-5.070007,2.890015-9.179993,7.049988-12.309998,12.47998V7.649963h-27.369995v124.830017h21.710022v-20.440002c.599976,1.590027,1.289978,3.099976,2.059998,4.539978,3.299988,6.150024,7.859985,10.860046,13.679993,14.110046,5.809998,3.25,12.549988,4.869995,20.169983,4.869995,6.73999,0,12.77002-1.230042,18.130005-3.679993,5.369995-2.450012,9.940002-5.869995,13.77002-10.26001,3.809998-4.380005,6.72998-9.48999,8.72998-15.299988,1.98999-5.820007,2.98999-12.140015,2.98999-18.980042v-3.76001c0-6.839966-1-13.169983-2.98999-18.98999Zm-27.450012,34.970032c-1.940002,4.169983-4.659973,7.389954-8.119995,9.669983-3.48999,2.280029-7.559998,3.419983-12.23999,3.419983-3.869995,0-7.630005-.919983-11.27002-2.73999-3.659973-1.820007-6.659973-4.469971-8.97998-7.950012-2.349976-3.47998-3.51001-7.669983-3.51001-12.570007v-6.329956c0-5.130005,1.100037-9.48999,3.330017-13.080017s5.159973-6.349976,8.799988-8.289978c3.650024-1.940002,7.530029-2.910034,11.630005-2.910034,4.679993,0,8.75,1.109985,12.23999,3.340027,3.460022,2.219971,6.179993,5.329956,8.119995,9.309998,1.940002,4,2.900024,8.669983,2.900024,14.029968,0,5.23999-.960022,9.940002-2.900024,14.100037Z"/>
    <path class="cls-1" d="M586.539978,65.699951c-2.399963-5.869995-5.809998-11.019958-10.26001-15.469971-4.459961-4.450012-9.839966-7.950012-16.169983-10.52002-2.570007-1.039978-5.309998-1.869995-8.179993-2.48999,2.049988,3.570007,3.01001,8.320007,3.01001,13.48999,0,4.720032-.76001,9.030029-2.48999,12.470032,3.159973,2.309998,5.619995,5.320007,7.409973,9.019958,1.940002,4.050049,2.900024,8.75,2.900024,14.110046,0,5.019958-.940002,9.579956-2.820007,13.679993-1.880005,4.099976-4.580017,7.299988-8.119995,9.580017-3.530029,2.279968-7.970032,3.419983-13.340027,3.419983-5.119995,0-9.51001-1.140015-13.169983-3.419983-3.640015-2.280029-6.380005-5.480042-8.200012-9.580017-1.820007-4.100037-2.73999-8.660034-2.73999-13.679993,0-5.360046,.940002-10.059998,2.820007-14.110046,1.880005-4.039978,4.649963-7.259949,8.289978-9.659973,.359985-.22998-4.630005,6.299988-4.809998,12.970032-.219971,7.949951,4.179993,15.939941,4.179993,15.939941,0,0,24.590027-15.97998,24.880005-40.519958,.190002-17.140015-13.179993-41.960022-13.179993-41.960022,0,0-8.169983,23.890015-19.440002,30.73999-5.880005,3.559998-11.820007,6.070007-16.330017,10.52002-4.5,4.450012-7.919983,9.599976-10.269958,15.469971-2.330017,5.880005-3.5,12.060059-3.5,18.560059v3.929993c0,6.389954,1.149963,12.459961,3.419983,18.209961,2.289978,5.76001,5.619995,10.860046,10,15.309998,4.390015,4.440002,9.789978,7.950012,16.169983,10.51001,6.380005,2.570007,13.679993,3.850037,21.880005,3.850037,8.320007,0,15.679993-1.280029,22.070007-3.850037,6.369995-2.559998,11.76001-6.070007,16.150024-10.51001,4.389954-4.449951,7.719971-9.549988,10-15.309998,2.279968-5.75,3.419983-11.820007,3.419983-18.209961v-3.929993c0-6.5-1.200012-12.680054-3.580017-18.560059Z"/>
    <path class="cls-1" d="M685.369995,46.549988c-5.76001-7.119995-14.109985-10.679993-25.049988-10.679993h-1.200012c-7.179993,0-13.27002,1.589966-18.299988,4.779968-5.01001,3.200012-8.75,7.98999-11.200012,14.369995-.869995,2.25-1.570007,4.690002-2.130005,7.340027v-23.590027h-21.710022v93.710022h27.350037v-54.549988c0-5.23999,1.570007-9.48999,4.709961-12.73999,3.140015-3.25,7.27002-4.869995,12.390015-4.869995,5.01001,0,9,1.599976,11.970032,4.789978,2.969971,3.190002,4.459961,7.289978,4.459961,12.309998v55.059998h27.350037v-53.52002c0-14.47998-2.880005-25.279968-8.640015-32.409973Z"/>
    <polygon class="cls-1" points="749.074982 38.769958 749.074982 132.47998 721.714996 132.47998 721.714996 58.949951 709.225006 58.949951 709.225006 38.769958 749.074982 38.769958"/>
    <path class="cls-1" d="M826.194977,40.649963v20.01001h-24.279968v71.820007h-25.480042V60.659973h-11.119995v-20.01001h11.119995v-2.72998c0-10.830017,3.080017-18.869995,9.230042-24.109985,6.159973-5.23999,15.219971-7.869995,27.190002-7.869995h11.969971V26.459961h-13.169983c-3.080017,0-5.470032,.860046-7.179993,2.570007-1.710022,1.710022-2.559998,4.100037-2.559998,7.179993v4.440002h24.279968Z"/>
    <path class="cls-1" d="M103.659973,173c-1.089966,.079956-2.209961,.119995-3.339966,.159973h-.660034v-.539978c1.309998,.159973,2.650024,.279968,4,.380005Z"/>
    <path class="cls-1" d="M925.880005,38.769958l-26.160034,101.240051c-1.829956,7.289978-4.359985,13.099976-7.609985,17.439941-3.25,4.330017-7.580017,7.440002-13,9.320007s-12.289978,2.820007-20.609985,2.820007l-719.969863,3.400887c16.222592-2.823087,23.923752-15.722257,28.928696-22.383449l693.781157-4.277447c2.960022,0,5.47998-.369995,7.52002-1.109985,2.059998-.73999,3.719971-1.969971,4.969971-3.679993s2.27002-4.039978,3.070007-7.01001l1-4.099976h-17.929993l-28.72998-91.660034h27.529968l20.859985,70.280029h3.410034l16.950012-70.280029h25.98999Z"/>
    <g>
      <path class="cls-2" d="M99.659973,172.619995v.539978h.660034c1.130005-.039978,2.25-.080017,3.339966-.159973-1.349976-.100037-2.690002-.220032-4-.380005Z"/>
      <path class="cls-2" d="M168.76001,70.25h-34.130005c-.970032-6.320007-3.179993-11.700012-6.619995-16.150024-3.450012-4.450012-7.900024-7.900024-13.340027-10.339966-3.450012-1.540039-7.159973-2.600037-11.130005-3.170044-2.299988-.329956-4.700012-.48999-7.179993-.48999-6.76001,0-12.75,1.220032-17.98999,3.660034-3.200012,1.48999-6.080017,3.359985-8.640015,5.609985-5.409973-5.940002-11.77002-10.660034-18.849976-13.77002-3.970032-1.73999-7.910034-2.869995-11.73999-3.529968,6.169983-7.430054,13.909973-13.390015,23.199951-17.920044,9.580017-4.659973,20.920044-7,34.02002-7,2.51001,0,4.970032,.090027,7.380005,.27002,10.659973,.799988,20.27002,3.369995,28.820007,7.700012,10.47998,5.309998,18.849976,12.669983,25.130005,22.070007,6.269958,9.409973,9.959961,20.429993,11.070007,33.059998Z"/>
      <path class="cls-2" d="M171.029968,110.299988c0,.029968-.009949,.049988-.009949,.080017-1.25,11.459961-4.930054,21.949951-11.060059,31.469971-2.019958,3.160034-4.289978,6.109985-6.809998,8.840027-5.079956,5.529968-11.149963,10.199951-18.209961,13.98999-9,4.830017-19.419983,7.609985-31.27002,8.320007h-.01001c-1.349976-.100037-2.690002-.220032-4-.380005v.539978c-.73999,.02002-1.5,.030029-2.26001,.030029-13.649963,0-25.379944-2.480042-35.169983-7.429993-9.789978-4.960022-17.779968-11.490051-23.98999-19.600037-6.200012-8.109985-10.789978-16.869995-13.75-26.27002-2.380005-7.549988-3.809998-14.929993-4.27002-22.149963,.540039,1.179993,.980042,2.140015,1.340027,2.869995,5.149963,10.419983,17.559998,22.72998,49.380005,31.219971,2.419983,1.940002,5.109985,3.550049,8.049988,4.850037,5.380005,2.369995,11.51001,3.559998,18.409973,3.559998,2.290039,0,4.5-.130005,6.640015-.390015,7.630005-.900024,14.280029-3.429993,19.929993-7.580017,7.23999-5.309998,11.619995-12.630005,13.140015-21.969971h33.919983Z"/>
    </g>
  </g>
  <path class="cls-2" d="M745.200012,4.22998c-2.570007-2.820007-6.570007-4.22998-11.960022-4.22998-5.400024,0-9.390015,1.409973-11.97998,4.22998-2.570007,2.820007-3.869995,6.450012-3.869995,10.890015,0,4.320007,1.299988,7.890015,3.869995,10.709961,2.589966,2.820007,6.579956,4.230042,11.97998,4.230042,5.390015,0,9.390015-1.410034,11.960022-4.230042,2.589966-2.819946,3.869995-6.389954,3.869995-10.709961,0-4.440002-1.280029-8.070007-3.869995-10.890015Z"/>
  <path class="cls-1" d="M76.890015,111.039978c-.640015-.849976-1.309998-1.72998-2-2.640015,.699951,.910034,1.369995,1.790039,2,2.640015Z"/>
  <path class="cls-1" d="M84.890015,109.26001v.389954c-.02002,3.780029-.118177,8.208317-.618177,12.078312,0,0-.531847-1.148319-1.231859-2.148319-.51001-.75-1.209961-1.75-2.059998-2.940002-.409973-.579956-.859985-1.199951-1.330017-1.859985-.179993-.23999-.359985-.48999-.539978-.73999-.679993-.940002-1.419983-1.940002-2.219971-3-.630005-.849976-1.300049-1.72998-2-2.640015-.350037-.459961-.710022-.919983-1.070007-1.380005-.410034-.539978-.830017-1.079956-1.26001-1.619995-.289978-.359985-.580017-.72998-.890015-1.109985-.75-.940002-1.529968-1.900024-2.320007-2.859985-.73999-.900024-1.48999-1.799988-2.269958-2.700012-2.300049-2.690002-4.710022-5.359985-7.160034-7.840027-.200012-.209961-.409973-.419983-.609985-.609985-.809998-.820007-1.630005-1.609985-2.450012-2.380005-.390015-.359985-.779968-.719971-1.169983-1.070007-.400024-.369995-.799988-.719971-1.200012-1.069946-1.169983-1.01001-2.330017-1.950012-3.47998-2.790039-.25-.190002-.51001-.380005-.76001-.559998-.880005-.619995-1.75-1.190002-2.609985-1.690002-.300049-.179993-.610046-.349976-.910034-.51001,.049988,.050049,.210022,.210022,.470032,.470032,.029968,.019958,.059998,.049988,.089966,.089966,.100037,.090027,.210022,.200012,.330017,.320007,.070007,.070007,.150024,.140015,.219971,.220032,.070007,.070007,.140015,.139954,.220032,.219971l.080017,.080017c.429993,.429993,.940002,.940002,1.519958,1.539978l.360046,.360046c.23999,.25,.48999,.509949,.759949,.789978,.170044,.169983,.350037,.359985,.540039,.549988,.139954,.150024,.289978,.309998,.440002,.460022,.149963,.159973,.309998,.320007,.469971,.48999,.679993,.710022,1.400024,1.469971,2.169983,2.289978,1.230042,1.320007,2.559998,2.77002,3.940002,4.309998,.460022,.51001,.930054,1.030029,1.390015,1.559998,.380005,.420044,.76001,.850037,1.130005,1.290039,.76001,.869995,1.52002,1.76001,2.280029,2.659973,3.059998,3.619995,6.099976,7.470032,8.690002,11.220032,.409973,.599976,.819946,1.199951,1.209961,1.789978,.369995,.559998,.720032,1.109985,1.070007,1.659973,.27002,.430054,.52002,.860046,.77002,1.280029,.289978,.47998,.559998,.950012,.820007,1.419983,1.820007,3.27002,3.049988,6.309998,3.359985,8.840027-.47998-.109985-.960022-.220032-1.429993-.340027-1.690002-.399963-3.330017-.820007-4.920044-1.23999-4.419983-1.179993-8.469971-2.429993-12.169983-3.75-22.909973-8.130005-32.709961-18.48999-37.149963-27.440002-.730042-1.469971-1.77002-3.839966-3.280029-7.190002-2.099976-4.640015-5.099976-11.159973-9.390015-19.76001-2.529968-5.089966-4.880005-9.609985-6.899963-13.429993-1.460022-2.73999-2.73999-5.119995-3.820007-7.089966,1.339966-.580017,3.529968-1.490051,6.390015-2.410034,.919983-.299988,1.909973-.589966,2.959961-.880005,.700012-.190002,1.420044-.380005,2.179993-.559998,4.130005-.97998,9.050049-1.73999,14.420044-1.73999,.48999,0,.97998,.01001,1.47998,.02002,.48999,.01001,.98999,.029968,1.5,.059998,.330017,.019958,.650024,.039978,.97998,.059998,.350037,.029968,.700012,.049988,1.059998,.089966,.400024,.030029,.800049,.070007,1.200012,.119995,.359985,.040039,.72998,.080017,1.090027,.130005,.269958,.040039,.539978,.080017,.809998,.119995,.399963,.059998,.799988,.120056,1.200012,.190002,.059998,.01001,.109985,.02002,.169983,.030029,.029968,.01001,.070007,.01001,.099976,.02002,.059998,.009949,.130005,.029968,.200012,.039978,1.030029,.190002,2.059998,.409973,3.099976,.669983h.01001c.420044,.100037,.840027,.210022,1.25,.330017,.119995,.029968,.23999,.059998,.359985,.099976,.290039,.080017,.580017,.160034,.870056,.25l.75,.240051c.23999,.079956,.48999,.159973,.73999,.23999,.23999,.079956,.47998,.169983,.72998,.26001,.630005,.209961,1.25,.449951,1.880005,.699951,.26001,.100037,.52002,.210022,.77002,.320007,.259949,.100037,.519958,.220032,.779968,.330017,.350037,.150024,.700012,.309998,1.049988,.47998,.300049,.130005,.590027,.27002,.880005,.420044,.450012,.219971,.900024,.449951,1.350037,.679993,.289978,.159973,.579956,.309998,.869995,.469971,.409973,.220032,.809998,.450012,1.209961,.690002,.27002,.160034,.540039,.309998,.800049,.47998,.539978,.330017,1.079956,.670044,1.599976,1.01001,.48999,.320007,.969971,.650024,1.440002,.98999,.26001,.180054,.52002,.360046,.77002,.540039,.019958,.019958,.039978,.029968,.059998,.049988,.449951,.330017,.889954,.659973,1.329956,1.01001,.300049,.22998,.590027,.459961,.880005,.700012,.26001,.209961,.52002,.419983,.77002,.639954,.22998,.190002,.460022,.390015,.690002,.590027,.25,.210022,.5,.429993,.73999,.650024,.030029,.019958,.049988,.049988,.080017,.069946,.539978,.490051,1.070007,.980042,1.589966,1.490051,.490051,.469971,.980042,.959961,1.450012,1.449951,.280029,.290039,.549988,.570007,.820007,.869995,.02002,.01001,.030029,.030029,.039978,.040039,.130005,.140015,.26001,.279968,.390015,.429993,.590027,.650024,1.169983,1.309998,1.730042,1.97998,.209961,.25,.419983,.51001,.629944,.77002,.52002,.630005,1.02002,1.27002,1.5,1.919983,.25,.330017,.490051,.650024,.730042,.98999,.48999,.670044,.959961,1.340027,1.419983,2.030029,.220032,.339966,.450012,.679993,.669983,1.029968,.220032,.340027,.440002,.690002,.660034,1.050049,.450012,.709961,.869995,1.429993,1.279968,2.149963,.210022,.359985,.420044,.730042,.619995,1.100037,.200012,.359985,.400024,.72998,.600037,1.109985,.179993,.330017,.349976,.659973,.51001,.98999,.219971,.419983,.429993,.849976,.630005,1.27002,.369995,.769958,.72998,1.539978,1.079956,2.329956,.170044,.390015,.340027,.780029,.51001,1.180054,.340027,.789978,.660034,1.589966,.970032,2.399963,.159973,.400024,.309998,.809998,.459961,1.220032,.150024,.409973,.299988,.819946,.440002,1.22998,.369995,1.070007,.72998,2.150024,1.049988,3.25,.100037,.309998,.190002,.609985,.280029,.929993,0,.01001,.01001,.030029,.01001,.039978,.029968,.090027,.049988,.180054,.079956,.27002,.180054,.650024,.360046,1.299988,.530029,1.960022,.099976,.380005,.190002,.76001,.279968,1.149963,.090027,.340027,.170044,.690002,.25,1.040039,.110046,.449951,.200012,.909973,.300049,1.369995,0,.019958,.01001,.029968,.01001,.049988,.059998,.289978,.119995,.580017,.179993,.869995,.089966,.450012,.179993,.909973,.259949,1.359985,.040039,.210022,.080017,.420044,.110046,.630005,.070007,.350037,.130005,.710022,.179993,1.070007,.02002,.099976,.039978,.190002,.049988,.289978,.109985,.670044,.200012,1.350037,.289978,2.02002,.090027,.630005,.170044,1.27002,.240051,1.910034,.059998,.5,.109985,1.009949,.159973,1.519958,.059998,.580017,.109985,1.160034,.150024,1.75,.029968,.340027,.049988,.679993,.069946,1.02002,.040039,.549988,.070007,1.109985,.090027,1.669983,.030029,.600037,.049988,1.210022,.059998,1.809998,.02002,.720032,.030029,1.440002,.030029,2.170044Z"/>
  <path class="cls-1" d="M76.890015,111.039978c-.640015-.849976-1.309998-1.72998-2-2.640015,.699951,.910034,1.369995,1.790039,2,2.640015Z"/>
  <path class="cls-1" d="M76.890015,111.039978c-.640015-.849976-1.309998-1.72998-2-2.640015,.699951,.910034,1.369995,1.790039,2,2.640015Z"/>
</svg>